<mxfile host="app.diagrams.net" modified="2021-03-22T20:16:03.133Z" agent="5.0 (Macintosh; Intel Mac OS X 10_13_6) AppleWebKit/537.36 (KHTML, like Gecko) Chrome/89.0.4389.82 Safari/537.36" etag="92mkRyHkGEIie5IkuTXL" version="14.5.0" type="github">
  <diagram id="C5RBs43oDa-KdzZeNtuy" name="Page-1">
    <mxGraphModel dx="946" dy="623" grid="1" gridSize="10" guides="1" tooltips="1" connect="1" arrows="1" fold="1" page="1" pageScale="1" pageWidth="827" pageHeight="1169" math="0" shadow="0">
      <root>
        <mxCell id="WIyWlLk6GJQsqaUBKTNV-0" />
        <mxCell id="WIyWlLk6GJQsqaUBKTNV-1" parent="WIyWlLk6GJQsqaUBKTNV-0" />
        <mxCell id="pM-N2Y62dy4oOpiXBUcG-20" value="" style="edgeStyle=orthogonalEdgeStyle;rounded=0;orthogonalLoop=1;jettySize=auto;html=1;startArrow=ERmandOne;startFill=0;endArrow=ERzeroToMany;endFill=1;" edge="1" parent="WIyWlLk6GJQsqaUBKTNV-1" source="pM-N2Y62dy4oOpiXBUcG-0" target="pM-N2Y62dy4oOpiXBUcG-6">
          <mxGeometry relative="1" as="geometry">
            <Array as="points">
              <mxPoint x="200" y="505" />
              <mxPoint x="200" y="565" />
              <mxPoint x="285" y="565" />
            </Array>
          </mxGeometry>
        </mxCell>
        <mxCell id="pM-N2Y62dy4oOpiXBUcG-0" value="User" style="html=1;" vertex="1" parent="WIyWlLk6GJQsqaUBKTNV-1">
          <mxGeometry x="210" y="480" width="310" height="50" as="geometry" />
        </mxCell>
        <mxCell id="pM-N2Y62dy4oOpiXBUcG-8" style="edgeStyle=orthogonalEdgeStyle;rounded=0;orthogonalLoop=1;jettySize=auto;html=1;entryX=1;entryY=0.5;entryDx=0;entryDy=0;startArrow=ERmandOne;startFill=0;endArrow=ERzeroToMany;endFill=1;" edge="1" parent="WIyWlLk6GJQsqaUBKTNV-1" source="pM-N2Y62dy4oOpiXBUcG-1" target="pM-N2Y62dy4oOpiXBUcG-6">
          <mxGeometry relative="1" as="geometry" />
        </mxCell>
        <mxCell id="pM-N2Y62dy4oOpiXBUcG-11" style="edgeStyle=orthogonalEdgeStyle;rounded=0;orthogonalLoop=1;jettySize=auto;html=1;startArrow=ERmandOne;startFill=0;endArrow=ERoneToMany;endFill=0;" edge="1" parent="WIyWlLk6GJQsqaUBKTNV-1" source="pM-N2Y62dy4oOpiXBUcG-1" target="pM-N2Y62dy4oOpiXBUcG-9">
          <mxGeometry relative="1" as="geometry" />
        </mxCell>
        <mxCell id="pM-N2Y62dy4oOpiXBUcG-1" value="Test" style="html=1;" vertex="1" parent="WIyWlLk6GJQsqaUBKTNV-1">
          <mxGeometry x="414" y="600" width="110" height="50" as="geometry" />
        </mxCell>
        <mxCell id="pM-N2Y62dy4oOpiXBUcG-6" value="Passed_Test" style="html=1;" vertex="1" parent="WIyWlLk6GJQsqaUBKTNV-1">
          <mxGeometry x="230" y="600" width="110" height="50" as="geometry" />
        </mxCell>
        <mxCell id="pM-N2Y62dy4oOpiXBUcG-13" style="edgeStyle=orthogonalEdgeStyle;rounded=0;orthogonalLoop=1;jettySize=auto;html=1;entryX=0;entryY=0.5;entryDx=0;entryDy=0;startArrow=ERmandOne;startFill=0;endArrow=ERoneToMany;endFill=0;" edge="1" parent="WIyWlLk6GJQsqaUBKTNV-1" source="pM-N2Y62dy4oOpiXBUcG-9" target="pM-N2Y62dy4oOpiXBUcG-12">
          <mxGeometry relative="1" as="geometry" />
        </mxCell>
        <mxCell id="pM-N2Y62dy4oOpiXBUcG-9" value="Question" style="html=1;" vertex="1" parent="WIyWlLk6GJQsqaUBKTNV-1">
          <mxGeometry x="590" y="600" width="110" height="50" as="geometry" />
        </mxCell>
        <mxCell id="pM-N2Y62dy4oOpiXBUcG-12" value="Answer" style="html=1;" vertex="1" parent="WIyWlLk6GJQsqaUBKTNV-1">
          <mxGeometry x="770" y="600" width="110" height="50" as="geometry" />
        </mxCell>
        <mxCell id="pM-N2Y62dy4oOpiXBUcG-17" style="edgeStyle=orthogonalEdgeStyle;rounded=0;orthogonalLoop=1;jettySize=auto;html=1;startArrow=ERmandOne;startFill=0;endArrow=ERoneToMany;endFill=0;exitX=1;exitY=0.5;exitDx=0;exitDy=0;" edge="1" parent="WIyWlLk6GJQsqaUBKTNV-1" source="pM-N2Y62dy4oOpiXBUcG-0" target="pM-N2Y62dy4oOpiXBUcG-1">
          <mxGeometry relative="1" as="geometry" />
        </mxCell>
        <mxCell id="pM-N2Y62dy4oOpiXBUcG-27" style="edgeStyle=orthogonalEdgeStyle;rounded=0;orthogonalLoop=1;jettySize=auto;html=1;startArrow=ERmandOne;startFill=0;endArrow=ERoneToMany;endFill=0;" edge="1" parent="WIyWlLk6GJQsqaUBKTNV-1" source="pM-N2Y62dy4oOpiXBUcG-25" target="pM-N2Y62dy4oOpiXBUcG-1">
          <mxGeometry relative="1" as="geometry" />
        </mxCell>
        <mxCell id="pM-N2Y62dy4oOpiXBUcG-25" value="Category" style="html=1;" vertex="1" parent="WIyWlLk6GJQsqaUBKTNV-1">
          <mxGeometry x="414" y="710" width="110" height="50" as="geometry" />
        </mxCell>
      </root>
    </mxGraphModel>
  </diagram>
</mxfile>
